<?xml version="1.0" encoding="utf-8"?>
<!-- Generator: Adobe Illustrator 22.1.0, SVG Export Plug-In . SVG Version: 6.00 Build 0)  -->
<svg version="1.1" id="Layer_1" xmlns="http://www.w3.org/2000/svg" xmlns:xlink="http://www.w3.org/1999/xlink" x="0px" y="0px"
	 viewBox="0 0 300.4 56.7" style="enable-background:new 0 0 300.4 56.7;" xml:space="preserve">
<g>
	<path d="M11.3,3.6v32.9c0,1.7,0.2,3.2,0.5,4.5c0.3,1.3,0.8,2.6,1.4,3.7c0.7,1.1,1.6,1.9,2.9,2.4c1.2,0.6,2.8,0.9,4.7,0.9
		c0,0,0.1,0,0.1,0c0,0,0.1,0,0.1,0c0,0,0.1,0,0.1,0c0,0,0.1,0,0.1,0c0,0,0.1-0.1,0.1-0.1c0,0,0.1,0,0.1,0c0,0,0.1,0,0.1,0
		c0,0,0.1,0,0.1,0c0,0,0.1,0,0.1,0c0,0,0.1,0,0.1,0l5.7-0.1v6.3h-7.9c-0.4,0-0.9,0-1.4,0c-0.5,0-1-0.1-1.5-0.1
		c-0.5-0.1-1.1-0.2-1.6-0.4c-0.6-0.1-1.1-0.3-1.7-0.5c-1.2-0.4-2.2-1-3.3-1.8c-1-0.7-2-1.6-3-2.7c-0.9-1.1-1.6-2.3-2.1-3.9
		c-0.5-1.5-0.7-3.3-0.7-5.3V3.6H11.3z"/>
	<path d="M34.3,10.1c0.2-0.5,0.5-0.9,0.9-1.2c0.4-0.3,0.8-0.5,1.3-0.7C37,8,37.5,7.9,37.9,7.9c0.5,0,1,0.1,1.4,0.2
		c0.4,0.1,0.9,0.4,1.3,0.7c0.4,0.3,0.8,0.7,1,1.2c0.2,0.5,0.3,1,0.3,1.6c0,0.6-0.1,1.2-0.3,1.7c-0.2,0.5-0.5,0.9-0.9,1.2
		c-0.4,0.3-0.9,0.6-1.3,0.7s-0.9,0.2-1.4,0.2c-0.5,0-1,0-1.4-0.1c-0.5-0.1-0.9-0.4-1.4-0.7c-0.4-0.3-0.7-0.8-0.9-1.3
		c-0.2-0.5-0.3-1.1-0.3-1.7v-0.1C34.1,11,34.2,10.5,34.3,10.1z M34.6,19.5h6.3v34.6h-6.3V19.5z"/>
	<path d="M64.1,47.8c0.1,0.1,0.2,0.1,0.3,0.1c0.1,0,0.2,0,0.3,0c0.1,0,0.2,0,0.3,0c0.1,0,0.2,0,0.3,0c0.1,0,0.2,0.1,0.3,0.1
		c0.1,0,0.2,0,0.3,0c0.1,0,0.2,0,0.3,0c0.1,0,0.2,0,0.3,0c0.6,0,1.1,0,1.6-0.1c0.5-0.1,1-0.2,1.5-0.4c0.5-0.1,0.8-0.4,1.1-0.8
		c0.2-0.4,0.4-0.9,0.4-1.5c0-0.7-0.2-1.3-0.5-1.8c-0.4-0.5-0.9-1-1.6-1.4c-0.7-0.4-1.5-0.7-2.5-1.1c-0.9-0.3-2-0.7-3.1-1
		c-0.1,0-0.3-0.1-0.4-0.1c-0.1,0-0.3-0.1-0.4-0.1c-0.2,0-0.4-0.1-0.5-0.1c-0.1,0-0.3-0.1-0.4-0.1c-0.3-0.1-0.7-0.2-1-0.3
		c-0.3-0.1-0.6-0.2-0.9-0.3c-1.5-0.4-2.9-0.9-4.1-1.5c-1.2-0.6-2.3-1.3-3.3-2.1c-0.9-0.8-1.6-1.8-2.1-2.8c-0.5-1.1-0.7-2.3-0.7-3.7
		c0-2,0.3-3.6,1-4.9c0.7-1.3,1.7-2.1,3-2.6c1.3-0.5,2.8-0.9,4.4-1.2c1.6-0.3,3.3-0.4,5.2-0.4l13-0.1v5.6H62.4
		c-0.9,0.1-1.7,0.2-2.4,0.3c-0.7,0.1-1.4,0.2-2.1,0.4c-0.6,0.2-1.1,0.5-1.4,0.9c-0.3,0.4-0.4,0.9-0.4,1.4c0,0.6,0.2,1.2,0.5,1.7
		c0.3,0.5,0.8,0.9,1.4,1.3c0.6,0.3,1.3,0.6,2,0.9c0.7,0.3,1.4,0.5,2.2,0.8c0.2,0,0.5,0.1,0.7,0.1c0.2,0,0.4,0.1,0.6,0.1
		c0.1,0,0.2,0.1,0.3,0.1c0.1,0,0.2,0,0.4,0c0.1,0,0.2,0.1,0.3,0.1c0.1,0,0.2,0,0.3,0c0.1,0,0.3,0.1,0.4,0.1c0.1,0,0.3,0.1,0.4,0.1
		c0.1,0,0.2,0,0.2,0c0,0,0.1,0,0.2,0c0,0,0.1,0.1,0.2,0.1c0.1,0,0.1,0,0.2,0c2.1,0.7,3.9,1.5,5.4,2.2c1.5,0.8,2.6,1.6,3.5,2.4
		c0.8,0.8,1.4,1.8,1.8,2.9c0.4,1.1,0.6,2.4,0.6,3.8c0,1.6-0.3,2.9-0.8,4c-0.5,1.1-1.1,1.9-1.9,2.6c-0.8,0.6-1.6,1.1-2.5,1.5
		c-0.9,0.4-1.8,0.6-2.8,0.8c-0.3,0-0.7,0.1-1,0.1c-0.3,0-0.6,0-0.9,0c-0.1,0-0.3,0-0.4,0s-0.3,0-0.4,0.1c-0.1,0-0.3,0-0.4,0
		c-0.1,0-0.3,0-0.4,0s-0.3,0-0.4,0c-0.1,0-0.2,0-0.3,0c-0.1,0-0.3,0-0.4,0c-0.1,0-0.2,0-0.3,0c-0.1,0-0.3-0.1-0.4-0.1
		c-0.1,0-0.2,0-0.3,0c-0.1,0-0.2,0-0.3,0c-0.1,0-0.2,0-0.3,0H49.4v-6.3H64.1z"/>
	<path d="M83.9,11h6.8v8.5h13.1v6.2H90.7v17.6c0,0.7,0,1.3,0.1,1.8c0.1,0.5,0.2,1,0.4,1.5c0.2,0.5,0.6,0.8,1.3,1
		c0.6,0.2,1.5,0.3,2.7,0.3l8-0.1v6.3h-8.5c0,0-0.1,0-0.1,0c0,0-0.1,0-0.1,0c0,0-0.1,0-0.1,0c0,0-0.1,0-0.1,0.1c0,0-0.1,0-0.1,0
		c0,0-0.1,0-0.1,0c0,0-0.1,0-0.1,0c0,0-0.1,0-0.1,0c-1.6,0-3-0.2-4.2-0.7c-1.2-0.5-2.2-1.2-3-2.2c-0.8-1-1.4-2.1-1.8-3.2
		c-0.4-1.2-0.7-2.4-0.8-3.6c0-0.1-0.1-0.2-0.1-0.3c0-0.1,0-0.3,0-0.4c0-0.1,0-0.2,0-0.3c0-0.1,0-0.3,0-0.4v-0.1V11z"/>
	<path d="M130.5,28.6c-0.1,0-0.2-0.1-0.3-0.2c-0.1-0.1-0.2-0.2-0.3-0.3c-0.1-0.1-0.2-0.2-0.3-0.4c-0.1-0.1-0.3-0.3-0.4-0.4
		c-0.1-0.1-0.3-0.2-0.5-0.3c-0.2-0.1-0.3-0.3-0.5-0.4c-0.2-0.1-0.4-0.2-0.6-0.3c-0.2-0.1-0.4-0.2-0.6-0.3c-0.5-0.2-1-0.4-1.7-0.5
		c-0.6-0.1-1.4-0.1-2.2-0.1c-1.9,0-3.5,0.3-4.9,1c-1.4,0.7-2.6,1.7-3.6,3c-1,1.3-1.7,2.7-2.2,4.1c-0.5,1.4-0.7,2.9-0.7,4.5
		c0,0,0,0.1,0,0.1V38c0,1.4,0.3,2.7,0.8,4c0.5,1.3,1.2,2.5,2.2,3.6c1,1.2,2.1,2,3.6,2.6c1.4,0.6,3,0.9,4.9,0.9c2,0,3.6-0.2,4.9-0.7
		c1.3-0.5,2.3-1.1,3-2.1c0.7-1,1.3-2.1,1.8-3.4c0.6-1.3,1-2.8,1.5-4.4v-0.1l0.1-0.1v-0.1l6.3,0.4c0,0.1,0,0.2,0,0.3
		c0,0.1,0,0.1,0.1,0.2c0,0.1,0,0.2,0,0.2s0,0.1,0,0.2c0,0,0,0.1,0,0.2c0,0.1,0,0.1,0.1,0.2c0,0.1,0,0.2,0,0.2s0,0.1,0,0.1
		c0,0.4,0,0.8-0.1,1.2c0,0.4-0.1,0.8-0.2,1.3c0,0.2-0.1,0.4-0.2,0.6c-0.1,0.2-0.1,0.5-0.2,0.6c-0.1,0.2-0.2,0.5-0.3,0.7
		c-0.1,0.2-0.2,0.4-0.3,0.7c-0.6,1.2-1.3,2.4-2.3,3.5c-1,1.2-2.1,2.2-3.5,3.2c-1.3,1-2.9,1.8-4.7,2.3c-1.8,0.5-3.8,0.8-6,0.8
		c-2.5,0-4.9-0.4-7.1-1.2s-4.1-2-5.8-3.6c-1.8-1.7-3.1-3.6-4-5.7c-0.9-2.1-1.3-4.4-1.3-6.9c0-2.7,0.4-5.1,1.1-7.1
		c0.7-2.1,1.8-3.8,3.2-5.3c1.4-1.5,3-2.7,4.5-3.7c1.6-1,3.2-1.7,5-2.1c0.2,0,0.4-0.1,0.5-0.1c0.2,0,0.3-0.1,0.5-0.1
		c0.2,0,0.4,0,0.5,0c0.2,0,0.3-0.1,0.5-0.1c0.4,0,0.8-0.1,1.1-0.1c0.4,0,0.7,0,1,0c2,0,3.8,0.3,5.5,0.8c1.7,0.6,3.3,1.4,4.7,2.5
		c1.4,1.1,2.7,2.3,3.8,3.7c1.1,1.3,2.1,2.8,3,4.3l-23.8,12.9l-2.8-5L130.5,28.6z"/>
	<path d="M152.6,19.5v3.4c0.1,0,0.2-0.1,0.3-0.2c0.1-0.1,0.2-0.2,0.3-0.4c0.1-0.1,0.2-0.3,0.4-0.4s0.3-0.3,0.4-0.4
		c0.4-0.4,0.8-0.7,1.3-1.1c0.5-0.3,1-0.6,1.6-0.9c0.6-0.3,1.2-0.5,1.9-0.7c0.7-0.2,1.5-0.3,2.3-0.3l2.3-0.1v6.3h-1.7
		c-1.3,0.2-2.5,0.6-3.5,1.1c-1,0.5-1.8,1.1-2.4,1.8c-0.6,0.7-1.1,1.5-1.5,2.3c-0.4,0.8-0.7,1.6-1,2.4c-0.2,0.6-0.3,1.2-0.4,1.8
		c-0.1,0.6-0.1,1.1-0.1,1.7c0,0.6-0.1,1.1-0.1,1.5s0,0.8,0,1.2v15.7h-6.3V19.5H152.6z"/>
	<path d="M166.2,20.1c0-2.6,0.4-5,1.3-7.2c0.8-2.1,2.1-4,3.8-5.6c1.7-1.6,3.5-2.8,5.4-3.6c1.9-0.8,3.9-1.2,6-1.2
		c0.4,0,0.9,0,1.3,0.1c0.4,0,0.9,0.1,1.4,0.2c0.5,0.1,1,0.2,1.4,0.4c0.5,0.1,1,0.3,1.4,0.4c1.4,0.5,2.8,1.2,4.1,2.2
		c1.3,0.9,2.5,2,3.7,3.3c1.2,1.3,2.1,2.8,2.7,4.4c0.6,1.7,0.9,3.5,0.9,5.5c0,2.2-0.3,4.2-0.9,5.9s-1.4,3.2-2.5,4.5
		c-1.1,1.2-2.3,2.2-3.5,3.1c-1.2,0.8-2.5,1.5-3.8,1.8c-0.3,0.1-0.7,0.2-1,0.3c-0.4,0.1-0.7,0.1-1,0.2c-0.3,0-0.7,0.1-1,0.1
		c-0.3,0-0.7,0-1,0l-9.6-0.1v-6.2h6.3c0,0,0.1,0.1,0.1,0.1c0,0,0.1,0,0.1,0c0.1,0,0.2,0,0.2,0c0,0,0.1,0,0.1,0c0,0,0.1,0,0.1,0
		c0.1,0,0.2,0,0.2,0c1.4,0,2.7-0.1,3.7-0.4c1.1-0.3,1.9-0.7,2.6-1.3c0.7-0.5,1.2-1.1,1.7-1.7c0.5-0.6,0.8-1.3,1.1-1.9
		c0.1-0.4,0.3-0.8,0.3-1.2c0.1-0.4,0.1-0.8,0.2-1.2c0-0.4,0.1-0.7,0.1-1c0-0.3,0-0.6,0-0.9c0-0.2,0-0.5,0-0.8c0-0.3-0.1-0.6-0.1-0.9
		c0-0.3-0.1-0.7-0.2-1c-0.1-0.3-0.2-0.7-0.3-1c-0.3-0.7-0.7-1.4-1.2-2.1c-0.5-0.7-1.1-1.3-1.7-1.9c-0.7-0.6-1.5-1.1-2.5-1.4
		c-1-0.3-2.2-0.5-3.6-0.5c-2.1,0-3.8,0.3-5.2,1c-1.3,0.7-2.3,1.7-2.8,3c-0.6,1.3-1,2.8-1.3,4.4c-0.3,1.6-0.4,3.3-0.4,5.1v31h-6.8
		V20.1z"/>
	<path d="M208.7,19.5v3.4c0.1,0,0.2-0.1,0.3-0.2c0.1-0.1,0.2-0.2,0.3-0.4c0.1-0.1,0.2-0.3,0.4-0.4c0.1-0.1,0.3-0.3,0.4-0.4
		c0.4-0.4,0.8-0.7,1.3-1.1c0.5-0.3,1-0.6,1.6-0.9c0.6-0.3,1.2-0.5,1.9-0.7c0.7-0.2,1.5-0.3,2.3-0.3l2.3-0.1v6.3h-1.7
		c-1.3,0.2-2.5,0.6-3.5,1.1c-1,0.5-1.8,1.1-2.4,1.8c-0.6,0.7-1.1,1.5-1.5,2.3c-0.4,0.8-0.7,1.6-1,2.4c-0.2,0.6-0.3,1.2-0.4,1.8
		c-0.1,0.6-0.1,1.1-0.1,1.7c0,0.6-0.1,1.1-0.1,1.5s0,0.8,0,1.2v15.7h-6.3V19.5H208.7z"/>
	<path d="M223.1,28.8c0.9-2.1,2.3-4,4-5.5c1.8-1.6,3.8-2.8,5.8-3.6s4.2-1.2,6.4-1.2c0.1,0,0.2,0,0.3,0c0.1,0,0.2,0,0.3,0
		c0.1,0,0.2,0.1,0.3,0.1c0.1,0,0.3,0,0.4,0c0.1,0,0.2,0,0.3,0c0.1,0,0.3,0,0.4,0c0.1,0,0.2,0.1,0.3,0.1c0.1,0,0.2,0,0.3,0
		c1.9,0.3,3.8,0.9,5.5,1.7c1.8,0.8,3.4,2,5.1,3.3c1.6,1.4,2.8,3.2,3.6,5.4c0.8,2.2,1.2,4.7,1.2,7.6c0,0.2,0,0.4,0,0.6
		c0,0.2,0,0.4-0.1,0.5c0,0.2,0,0.4,0,0.6c0,0.2,0,0.4,0,0.6c0,0.4-0.1,0.8-0.2,1.2c-0.1,0.4-0.2,0.8-0.3,1.2c-0.4,1.7-1.1,3.4-2,4.9
		c-0.9,1.6-2,3-3.4,4.4c-1.3,1.4-3,2.4-4.8,3.1c-1.9,0.7-4,1-6.3,1c-3.3,0-6.1-0.4-8.5-1.3s-4.3-2.2-5.8-4.1c-1.5-1.8-2.6-3.8-3.3-6
		c-0.7-2.2-1.1-4.6-1.1-7.1v-0.1C221.8,33.3,222.2,30.9,223.1,28.8z M228.6,37c0,0.3,0,0.6,0.1,1c0,0.3,0.1,0.7,0.2,1
		c0.1,0.3,0.1,0.6,0.2,1c0.2,1.1,0.6,2.1,1.2,3.1c0.5,1,1.2,2,1.9,2.9c0.8,0.9,1.8,1.6,3,2c1.2,0.4,2.6,0.6,4.2,0.6
		c1.5,0,3-0.2,4.3-0.6c1.3-0.4,2.6-1.1,3.7-1.9c1.1-0.9,1.9-2.1,2.5-3.8c0.6-1.7,0.8-3.7,0.8-6.1c0-1.7-0.2-3.2-0.7-4.6
		c-0.5-1.4-1.2-2.6-2.2-3.6c-1-1-2.1-1.8-3.6-2.3c-1.4-0.5-3-0.8-4.9-0.8c-1.7,0-3.2,0.2-4.5,0.7c-1.2,0.5-2.3,1.2-3.1,2.1
		c-0.8,0.9-1.5,1.9-2,3c-0.5,1.1-0.9,2.1-1,3.2c0,0.2-0.1,0.4-0.1,0.6c0,0.2-0.1,0.4-0.1,0.6c0,0.2,0,0.4,0,0.6c0,0.2,0,0.4,0,0.6
		v-0.1C228.6,36.3,228.6,36.7,228.6,37z"/>
	<path d="M276.2,47.8c0.1,0.1,0.2,0.1,0.3,0.1c0.1,0,0.2,0,0.3,0c0.1,0,0.2,0,0.3,0c0.1,0,0.2,0,0.3,0c0.1,0,0.2,0.1,0.3,0.1
		c0.1,0,0.2,0,0.3,0c0.1,0,0.2,0,0.3,0c0.1,0,0.2,0,0.3,0c0.6,0,1.1,0,1.6-0.1c0.5-0.1,1-0.2,1.5-0.4c0.5-0.1,0.8-0.4,1.1-0.8
		c0.2-0.4,0.4-0.9,0.4-1.5c0-0.7-0.2-1.3-0.5-1.8c-0.4-0.5-0.9-1-1.6-1.4c-0.7-0.4-1.5-0.7-2.5-1.1c-0.9-0.3-2-0.7-3.1-1
		c-0.1,0-0.3-0.1-0.4-0.1c-0.1,0-0.3-0.1-0.4-0.1c-0.2,0-0.4-0.1-0.5-0.1c-0.1,0-0.3-0.1-0.4-0.1c-0.3-0.1-0.7-0.2-1-0.3
		c-0.3-0.1-0.6-0.2-0.9-0.3c-1.5-0.4-2.9-0.9-4.1-1.5c-1.2-0.6-2.3-1.3-3.3-2.1c-0.9-0.8-1.6-1.8-2.1-2.8c-0.5-1.1-0.7-2.3-0.7-3.7
		c0-2,0.3-3.6,1-4.9c0.7-1.3,1.7-2.1,3-2.6c1.3-0.5,2.8-0.9,4.4-1.2c1.6-0.3,3.3-0.4,5.2-0.4l13-0.1v5.6h-13.6
		c-0.9,0.1-1.7,0.2-2.4,0.3c-0.7,0.1-1.4,0.2-2.1,0.4c-0.6,0.2-1.1,0.5-1.4,0.9c-0.3,0.4-0.4,0.9-0.4,1.4c0,0.6,0.2,1.2,0.5,1.7
		c0.3,0.5,0.8,0.9,1.4,1.3c0.6,0.3,1.3,0.6,2,0.9c0.7,0.3,1.4,0.5,2.2,0.8c0.2,0,0.5,0.1,0.7,0.1c0.2,0,0.4,0.1,0.6,0.1
		c0.1,0,0.2,0.1,0.3,0.1c0.1,0,0.2,0,0.4,0c0.1,0,0.2,0.1,0.3,0.1c0.1,0,0.2,0,0.3,0c0.1,0,0.3,0.1,0.4,0.1c0.1,0,0.3,0.1,0.4,0.1
		c0.1,0,0.2,0,0.2,0c0,0,0.1,0,0.2,0c0,0,0.1,0.1,0.2,0.1c0.1,0,0.1,0,0.2,0c2.1,0.7,3.9,1.5,5.4,2.2c1.5,0.8,2.6,1.6,3.5,2.4
		c0.8,0.8,1.4,1.8,1.8,2.9c0.4,1.1,0.6,2.4,0.6,3.8c0,1.6-0.3,2.9-0.8,4s-1.1,1.9-1.9,2.6c-0.8,0.6-1.6,1.1-2.5,1.5
		c-0.9,0.4-1.8,0.6-2.8,0.8c-0.3,0-0.7,0.1-1,0.1c-0.3,0-0.6,0-0.9,0c-0.1,0-0.3,0-0.4,0c-0.1,0-0.3,0-0.4,0.1c-0.1,0-0.3,0-0.4,0
		c-0.1,0-0.3,0-0.4,0c-0.1,0-0.3,0-0.4,0c-0.1,0-0.2,0-0.3,0c-0.1,0-0.3,0-0.4,0c-0.1,0-0.2,0-0.3,0c-0.1,0-0.3-0.1-0.4-0.1
		c-0.1,0-0.2,0-0.3,0c-0.1,0-0.2,0-0.3,0c-0.1,0-0.2,0-0.3,0h-14.1v-6.3H276.2z"/>
</g>
</svg>
